<svg xmlns="http://www.w3.org/2000/svg" viewBox="0 0 160 160">
  <defs>
    <radialGradient id="b" cx="40%" cy="25%" r="72%">
      <stop offset="0" stop-color="#ffc3a8"/>
      <stop offset=".45" stop-color="#e23d4f"/>
      <stop offset="1" stop-color="#56112f"/>
    </radialGradient>
    <filter id="s" x="-35%" y="-35%" width="170%" height="170%">
      <feDropShadow dx="0" dy="10" stdDeviation="8" flood-color="#250715" flood-opacity=".5"/>
    </filter>
  </defs>
  <ellipse cx="80" cy="143" rx="48" ry="11" fill="#180611" opacity=".25"/>
  <g filter="url(#s)">
    <path d="M30 80C30 43 52 18 80 18s50 25 50 62c0 42-24 65-50 65S30 122 30 80Z" fill="url(#b)"/>
    <path d="M37 50 12 25l42 9Zm86 0 25-25-42 9Z" fill="#4b1028"/>
    <path d="M48 76 30 66m82 10 18-10" stroke="#250715" stroke-width="8" stroke-linecap="round"/>
    <circle cx="56" cy="83" r="9" fill="#fff2ce"/>
    <circle cx="104" cy="83" r="9" fill="#fff2ce"/>
    <circle cx="59" cy="84" r="5" fill="#250715"/>
    <circle cx="101" cy="84" r="5" fill="#250715"/>
    <path d="M55 114c16-12 34-12 50 0" fill="none" stroke="#250715" stroke-width="8" stroke-linecap="round"/>
    <path d="M65 123h12l-6 12Zm18 0h12l-6 12Z" fill="#fff2ce"/>
  </g>
</svg>
