<svg xmlns="http://www.w3.org/2000/svg" viewBox="0 0 160 160">
  <defs>
    <radialGradient id="halo" cx="50%" cy="35%" r="64%">
      <stop offset="0" stop-color="#fffef2"/>
      <stop offset=".38" stop-color="#ffe899"/>
      <stop offset=".72" stop-color="#7fdcff"/>
      <stop offset="1" stop-color="#1a1638"/>
    </radialGradient>
    <linearGradient id="robe" x1="42" x2="118" y1="50" y2="150">
      <stop stop-color="#ffffff"/>
      <stop offset=".42" stop-color="#d8f5ff"/>
      <stop offset=".7" stop-color="#7868c8"/>
      <stop offset="1" stop-color="#0b0a18"/>
    </linearGradient>
    <linearGradient id="wing" x1="10" x2="150" y1="26" y2="142">
      <stop stop-color="#fff8c8"/>
      <stop offset=".45" stop-color="#9be8ff"/>
      <stop offset="1" stop-color="#25124d"/>
    </linearGradient>
  </defs>
  <circle cx="80" cy="60" r="52" fill="url(#halo)" opacity=".9"/>
  <path d="M22 48c-14 20-14 52 0 82 28-13 40-39 42-69-16 1-30-3-42-13Z" fill="url(#wing)" opacity=".85"/>
  <path d="M138 48c14 20 14 52 0 82-28-13-40-39-42-69 16 1 30-3 42-13Z" fill="url(#wing)" opacity=".85"/>
  <path d="M44 148c6-48 15-76 36-82 21 6 30 34 36 82-22 10-50 10-72 0Z" fill="url(#robe)"/>
  <path d="M56 68c0-18 10-31 24-31s24 13 24 31c0 17-10 29-24 29S56 85 56 68Z" fill="#f8fbff"/>
  <path d="M48 62c11-24 25-34 32-48 7 14 21 24 32 48-17-8-47-8-64 0Z" fill="#fff6bd"/>
  <path d="M58 72c14-7 30-7 44 0" fill="none" stroke="#1b1732" stroke-width="7" stroke-linecap="round"/>
  <path d="M66 74c9-3 19-3 28 0" fill="none" stroke="#fffdf0" stroke-width="2.5" stroke-linecap="round"/>
  <path d="M68 91h24" fill="none" stroke="#26213d" stroke-width="4" stroke-linecap="round"/>
  <path d="M80 8v30M60 18l12 24M100 18 88 42" stroke="#fff5ad" stroke-width="5" stroke-linecap="round"/>
  <circle cx="80" cy="61" r="5" fill="#ffe776"/>
</svg>
