<svg xmlns="http://www.w3.org/2000/svg" viewBox="0 0 96 96">
  <defs>
    <radialGradient id="body" cx="38%" cy="28%" r="70%">
      <stop offset="0" stop-color="#ffb7a1"/>
      <stop offset=".45" stop-color="#f05a49"/>
      <stop offset="1" stop-color="#9f2035"/>
    </radialGradient>
    <filter id="shadow" x="-30%" y="-30%" width="160%" height="160%">
      <feDropShadow dx="0" dy="7" stdDeviation="5" flood-color="#3b0612" flood-opacity=".42"/>
    </filter>
  </defs>
  <ellipse cx="48" cy="84" rx="27" ry="7" fill="#21040b" opacity=".25"/>
  <g filter="url(#shadow)">
    <path d="M18 43c0-20 14-33 30-33s30 13 30 33c0 28-16 43-30 43S18 71 18 43Z" fill="url(#body)"/>
    <path d="M19 36 7 23l19 4Zm58 0 12-13-19 4Z" fill="#7d1730"/>
    <path d="M34 43 23 37m39 6 11-6" stroke="#410814" stroke-width="5" stroke-linecap="round"/>
    <circle cx="35" cy="48" r="5" fill="#fff5d4"/>
    <circle cx="61" cy="48" r="5" fill="#fff5d4"/>
    <circle cx="36" cy="49" r="2.6" fill="#28040d"/>
    <circle cx="60" cy="49" r="2.6" fill="#28040d"/>
    <path d="M36 65c8-6 16-6 24 0" fill="none" stroke="#3b0612" stroke-width="5" stroke-linecap="round"/>
  </g>
</svg>
