<svg xmlns="http://www.w3.org/2000/svg" viewBox="0 0 220 220">
  <defs>
    <radialGradient id="void" cx="42%" cy="25%" r="80%">
      <stop offset="0" stop-color="#f6f0ff"/>
      <stop offset=".24" stop-color="#8d59ff"/>
      <stop offset=".62" stop-color="#26145f"/>
      <stop offset="1" stop-color="#05040d"/>
    </radialGradient>
    <filter id="glow" x="-40%" y="-40%" width="180%" height="180%">
      <feDropShadow dx="0" dy="0" stdDeviation="12" flood-color="#9d74ff" flood-opacity=".85"/>
      <feDropShadow dx="0" dy="16" stdDeviation="10" flood-color="#05040d" flood-opacity=".55"/>
    </filter>
  </defs>
  <ellipse cx="110" cy="198" rx="66" ry="14" fill="#02020a" opacity=".34"/>
  <g filter="url(#glow)">
    <path d="M36 145C19 86 48 24 110 24s91 62 74 121c-11 38-42 57-74 57s-63-19-74-57Z" fill="url(#void)"/>
    <path d="M51 57 10 11l62 20Zm118 0 41-46-62 20Z" fill="#080713"/>
    <path d="M75 99 43 82m102 17 32-17" stroke="#f6f0ff" stroke-width="9" stroke-linecap="round"/>
    <circle cx="78" cy="110" r="13" fill="#fff"/>
    <circle cx="142" cy="110" r="13" fill="#fff"/>
    <circle cx="82" cy="112" r="7" fill="#080713"/>
    <circle cx="138" cy="112" r="7" fill="#080713"/>
    <path d="M75 155c20-18 50-18 70 0" fill="none" stroke="#fff" stroke-width="10" stroke-linecap="round"/>
    <path d="M88 164h14l-7 19Zm30 0h14l-7 19Z" fill="#fff"/>
    <path d="M110 43v36M91 55l38 16M129 55 91 71" stroke="#dfd2ff" stroke-width="5" stroke-linecap="round" opacity=".8"/>
  </g>
</svg>
