<svg xmlns="http://www.w3.org/2000/svg" viewBox="0 0 96 96">
  <defs>
    <radialGradient id="body" cx="42%" cy="30%" r="68%">
      <stop offset="0" stop-color="#d8ffd7"/>
      <stop offset=".52" stop-color="#4fe379"/>
      <stop offset="1" stop-color="#178a4d"/>
    </radialGradient>
    <linearGradient id="spark" x1="0" y1="0" x2="1" y2="1">
      <stop offset="0" stop-color="#ffffff"/>
      <stop offset="1" stop-color="#d8ffd7"/>
    </linearGradient>
  </defs>
  <ellipse cx="48" cy="84" rx="25" ry="7" fill="#06351d" opacity=".24"/>
  <path d="M48 8c18 0 32 14 32 33 0 24-18 42-32 47-14-5-32-23-32-47C16 22 30 8 48 8Z" fill="url(#body)"/>
  <path d="M31 36c6-12 15-17 27-20 14 6 19 18 18 31-13-2-26-7-45-11Z" fill="#eaffdf" opacity=".23"/>
  <circle cx="37" cy="43" r="5" fill="#08331d"/>
  <circle cx="59" cy="43" r="5" fill="#08331d"/>
  <circle cx="39" cy="41" r="1.6" fill="url(#spark)"/>
  <circle cx="61" cy="41" r="1.6" fill="url(#spark)"/>
  <path d="M38 61c6 5 15 5 21 0" fill="none" stroke="#08331d" stroke-width="4" stroke-linecap="round"/>
  <path d="M21 50 8 43l9-8 8 9Z" fill="#2bc964"/>
  <path d="m75 50 13-7-9-8-8 9Z" fill="#2bc964"/>
</svg>
