<svg xmlns="http://www.w3.org/2000/svg" viewBox="0 0 96 96">
  <defs>
    <radialGradient id="g" cx="42%" cy="30%" r="68%">
      <stop offset="0" stop-color="#b6fbff"/>
      <stop offset=".52" stop-color="#32b7d0"/>
      <stop offset="1" stop-color="#126f95"/>
    </radialGradient>
    <filter id="s" x="-30%" y="-30%" width="160%" height="160%">
      <feDropShadow dx="0" dy="6" stdDeviation="5" flood-color="#063844" flood-opacity=".45"/>
    </filter>
  </defs>
  <ellipse cx="48" cy="84" rx="25" ry="7" fill="#062b35" opacity=".25"/>
  <g filter="url(#s)">
    <path d="M48 8c18 0 32 14 32 33 0 24-18 42-32 47-14-5-32-23-32-47C16 22 30 8 48 8Z" fill="url(#g)"/>
    <path d="M31 36c6-12 15-17 27-20 14 6 19 18 18 31-13-2-26-7-45-11Z" fill="#e4ffff" opacity=".24"/>
    <path d="M30 40c5-5 11-5 16 1m4 0c5-6 12-6 17 0" fill="none" stroke="#07313b" stroke-width="5" stroke-linecap="round"/>
    <path d="M37 49c-3 6-6 9-6 14a6 6 0 0 0 12 0c0-5-3-8-6-14Z" fill="#7eeaff" opacity=".9"/>
    <path d="M60 49c-3 6-6 9-6 14a6 6 0 0 0 12 0c0-5-3-8-6-14Z" fill="#7eeaff" opacity=".9"/>
    <path d="M37 69c7-7 16-7 23 0" fill="none" stroke="#07313b" stroke-width="5" stroke-linecap="round"/>
    <path d="M21 50 8 43l9-8 8 9Z" fill="#1b94b8"/>
    <path d="m75 50 13-7-9-8-8 9Z" fill="#1b94b8"/>
  </g>
</svg>
