<svg xmlns="http://www.w3.org/2000/svg" viewBox="0 0 96 96">
  <defs>
    <radialGradient id="body" cx="35%" cy="24%" r="72%">
      <stop offset="0" stop-color="#fff7c2"/>
      <stop offset=".48" stop-color="#ffd94f"/>
      <stop offset="1" stop-color="#a463ff"/>
    </radialGradient>
    <linearGradient id="halo" x1="12" x2="84" y1="16" y2="16">
      <stop stop-color="#fff"/>
      <stop offset=".5" stop-color="#ffe05f"/>
      <stop offset="1" stop-color="#9ff7ff"/>
    </linearGradient>
  </defs>
  <ellipse cx="48" cy="19" rx="24" ry="9" fill="none" stroke="url(#halo)" stroke-width="6" opacity=".95"/>
  <path d="M28 35c-9 8-13 22-7 35 5 12 16 19 27 19s22-7 27-19c6-13 2-27-7-35-5-4-7-10-8-17-7 9-17 9-24 0-1 7-3 13-8 17Z" fill="url(#body)"/>
  <path d="M30 42c7-9 29-10 37 0 3 15-3 30-19 30S27 57 30 42Z" fill="#fff7ca" opacity=".28"/>
  <path d="M30 45c9-7 27-7 36 0" fill="none" stroke="#fff" stroke-width="5" stroke-linecap="round" opacity=".8"/>
  <circle cx="38" cy="52" r="4" fill="#33200a"/>
  <circle cx="58" cy="52" r="4" fill="#33200a"/>
  <path d="M38 67c7 5 13 5 20 0" fill="none" stroke="#33200a" stroke-width="4" stroke-linecap="round"/>
  <path d="M25 18l9 14 14-19 14 19 9-14 3 26H22l3-26Z" fill="#ffe15d" stroke="#fff4a8" stroke-width="3" stroke-linejoin="round"/>
  <path d="M18 65c-8 3-12 9-12 17 13 1 22-3 27-12L18 65Zm60 0c8 3 12 9 12 17-13 1-22-3-27-12l15-5Z" fill="#fff2a6" opacity=".72"/>
</svg>
