<svg xmlns="http://www.w3.org/2000/svg" viewBox="0 0 64 64">
  <defs>
    <linearGradient id="wrap" x1="14" x2="49" y1="12" y2="54">
      <stop stop-color="#fff8bf"/>
      <stop offset=".52" stop-color="#ffc247"/>
      <stop offset="1" stop-color="#c87118"/>
    </linearGradient>
    <linearGradient id="shine" x1="20" x2="45" y1="8" y2="42">
      <stop stop-color="#ffffff"/>
      <stop offset="1" stop-color="#7eeaff"/>
    </linearGradient>
  </defs>
  <path d="M17 28c-4-5 3-10 8-5l1 1V13c0-6 9-6 9 0v12l2-10c1-6 10-4 8 2l-2 11 4-7c3-5 11-1 8 5l-7 13c-4 8-10 13-20 12-9-1-15-7-17-16l-2-9c-1-6 7-8 9-2l2 8-3-4Z" fill="url(#wrap)" stroke="#5d3515" stroke-width="3" stroke-linejoin="round"/>
  <path d="M25 28c5 5 10 6 17 3" fill="none" stroke="#fff8cf" stroke-width="3" stroke-linecap="round" opacity=".75"/>
  <path d="M20 46c7 5 17 6 25-4" fill="none" stroke="#5d3515" stroke-width="3" stroke-linecap="round" opacity=".55"/>
  <circle cx="43" cy="15" r="5" fill="url(#shine)" opacity=".86"/>
</svg>
