<svg xmlns="http://www.w3.org/2000/svg" viewBox="0 0 180 110">
  <defs>
    <linearGradient id="wing" x1="0" x2="1" y1="0" y2="1">
      <stop stop-color="#ffffff"/>
      <stop offset=".45" stop-color="#fff4ad"/>
      <stop offset=".72" stop-color="#8deaff"/>
      <stop offset="1" stop-color="#b57cff"/>
    </linearGradient>
    <filter id="glow" x="-30%" y="-40%" width="160%" height="180%">
      <feGaussianBlur stdDeviation="3.5" result="blur"/>
      <feMerge>
        <feMergeNode in="blur"/>
        <feMergeNode in="SourceGraphic"/>
      </feMerge>
    </filter>
  </defs>
  <path d="M89 52C58 23 31 12 6 13c13 7 22 16 29 27-12-9-23-13-34-12 20 12 34 29 43 51-13-8-25-10-36-7 23 18 50 24 80 17l1-37Z" fill="url(#wing)" filter="url(#glow)" opacity=".96"/>
  <path d="M91 52c31-29 58-40 83-39-13 7-22 16-29 27 12-9 23-13 34-12-20 12-34 29-43 51 13-8 25-10 36-7-23 18-50 24-80 17l-1-37Z" fill="url(#wing)" filter="url(#glow)" opacity=".96"/>
  <path d="M44 42c16 10 28 24 36 43M136 42c-16 10-28 24-36 43" fill="none" stroke="#ffffff" stroke-width="4" stroke-linecap="round" opacity=".76"/>
  <path d="M88 36c-8 12-8 31 0 44 2 4 6 4 8 0 8-13 8-32 0-44-2-4-6-4-8 0Z" fill="#fff9d6" stroke="#ffffff" stroke-width="2"/>
</svg>
